<svg xmlns="http://www.w3.org/2000/svg" width="105.085" height="37.385" viewBox="0 0 27.804 9.891">
  <path d="M-.1.112c0 .062.009.115.004.11 0 0 .14.119.456.456l.397.42c.065.067.283.298.485.513l.583.619a524.894 524.894 0 011.178 1.248l.287.303.975 1.033c.206.214.216.176-.142.554a751.418 751.418 0 00-1.41 1.493c-.226.24-.738.783-.865.916l-.793.84C.339 9.378.02 9.77-.108 9.9l.196-.001.061-.071c.04-.05.2-.22.497-.534l.275-.292a212.789 212.789 0 01.875-.927 959.732 959.732 0 011.972-2.089c.692-.737.803-.85.847-.868.07-.028 8.952-.028 8.992 0 .054.038.056.034-.312.425-.093.1-.217.23-.276.292-.13.136-.6.634-.891.945a393.296 393.296 0 01-1.16 1.23l-.321.34c-.111.114-.483.509-.765.81a62.26 62.26 0 01-.304.32c-.206.217-.219.228-.422.422.082 0 .138-.002.233-.001.219-.215.395-.389.551-.554a3383.157 3383.157 0 002.56-2.713c.05-.051.26-.274.468-.495.97-1.03.904-.965.962-.95.031.007.213.195 1.021 1.054a744.083 744.083 0 001.966 2.083l.404.427c.368.362.813.812 1.18 1.144h.235c-.469-.41-.74-.675-1.149-1.11-.105-.113-.25-.265-.32-.339a179.527 179.527 0 01-.964-1.02 158.205 158.205 0 00-1.184-1.254l-.591-.628c-.342-.362-.36-.386-.324-.423l.024-.023 4.485.002 4.485.003.033.025c.035.026.29.291.751.78l1.277 1.354.391.414.309.327A239.733 239.733 0 0127.646 9.8l.068.102.194-.001-.02-.05c-.013-.028-.01-.064-.148-.204a74.69 74.69 0 01-.866-.912 4930.807 4930.807 0 00-1.678-1.78 202.732 202.732 0 01-1.754-1.863c-.055-.07-.046-.105.052-.21.239-.256.457-.488.557-.592a485.193 485.193 0 001.85-1.96l.694-.735A69.48 69.48 0 0127.866.259c.036-.027.036-.028.036-.143l-.016-.125-4.725.01-4.619-.012c-.154.169-.226.23-.355.368a1075.645 1075.645 0 01-.878.93l-.885.937-.473.501-.487.519-.408.432c-1.153 1.226-1.096 1.167-1.14 1.167-.056 0 .021.078-1.252-1.272A1708.791 1708.791 0 0010.114.87C9.872.583 9.588.294 9.38-.018c-.085 0-.2.019-4.724.019L-.1-.001-.1.112m9.306.066c.034.02.268.26.652.669l.292.309c.06.06.156.164.217.228.132.143.566.603.862.915l.583.619.49.519c.068.07.333.351.59.624.256.273.525.558.597.633.137.143.16.183.127.217-.024.024-8.882.037-8.969.013-.07-.019-.089-.038-1.392-1.423-.154-.163-.33-.35-.392-.414a546.152 546.152 0 01-1.652-1.75C.122.19.123.192.241.164.328.143 9.166.157 9.205.178M27.58.163c.093.02.072.068-.113.264a2696.487 2696.487 0 00-1.999 2.117l-.484.514c-.401.424-.478.505-1.183 1.255-.527.56-.563.595-.62.61-.079.022-8.944.013-8.97-.009-.055-.046-.131.043.904-1.05l.301-.32a223.087 223.087 0 001.482-1.57l.567-.602.502-.531c.077-.08.242-.255.366-.388.239-.255.263-.277.328-.29.051-.01 8.872-.01 8.919 0" fill="#70bf96" fill-rule="evenodd"/>
</svg>
